# xmcd CD database file
#
# Track frame offsets:
#	182
#	9615
#	25650
#	38795
#	55402
#	64762
#	80610
#	106575
#	118915
#	134327
#
# Disc length: 2031 seconds
#
# Revision: 4
# Processed by: cddbd v1.5.1PL0 Copyright (c) Steve Scherf et al.
# Submitted via: CDex 1.51
#
DISCID=7f07ed0a
DTITLE=Blues Brothers - Made In America
DYEAR=1980
DGENRE=Blues
TTITLE0=Soul Finger
TTITLE1=Who's Making Love
TTITLE2=Do You Love Me
TTITLE3=Guilty
TTITLE4=Perry Mason Theme
TTITLE5=Riot In Cell Block Number Nine
TTITLE6=Green Onions
TTITLE7=I Ain't Got You
TTITLE8=From The Bottom
TTITLE9=Going Back To Miami
EXTD=YEAR: 1980
EXTT0=
EXTT1=
EXTT2=
EXTT3=
EXTT4=
EXTT5=
EXTT6=
EXTT7=
EXTT8=
EXTT9=
PLAYORDER=
